<?xml version="1.0" encoding="UTF-8" standalone="no"?>
<!-- Created with Inkscape (http://www.inkscape.org/) -->

<svg
   width="400"
   height="400"
   viewBox="0 0 105.83333 105.83333"
   version="1.1"
   id="svg5"
   xml:space="preserve"
   inkscape:version="1.2.2 (732a01da63, 2022-12-09)"
   sodipodi:docname="trn.svg"
   inkscape:export-filename="torino-logo.png"
   inkscape:export-xdpi="200"
   inkscape:export-ydpi="200"
   xmlns:inkscape="http://www.inkscape.org/namespaces/inkscape"
   xmlns:sodipodi="http://sodipodi.sourceforge.net/DTD/sodipodi-0.dtd"
   xmlns="http://www.w3.org/2000/svg"
   xmlns:svg="http://www.w3.org/2000/svg"><sodipodi:namedview
     id="namedview7"
     pagecolor="#ffffff"
     bordercolor="#000000"
     borderopacity="0.25"
     inkscape:showpageshadow="2"
     inkscape:pageopacity="0.0"
     inkscape:pagecheckerboard="0"
     inkscape:deskcolor="#d1d1d1"
     inkscape:document-units="mm"
     showgrid="false"
     inkscape:zoom="1.5910634"
     inkscape:cx="240.71951"
     inkscape:cy="157.44187"
     inkscape:window-width="2298"
     inkscape:window-height="1471"
     inkscape:window-x="94"
     inkscape:window-y="-9"
     inkscape:window-maximized="1"
     inkscape:current-layer="layer1" /><defs
     id="defs2"><rect
       x="910.18036"
       y="147.54877"
       width="256.87708"
       height="55.997425"
       id="rect6735" /><clipPath
       clipPathUnits="userSpaceOnUse"
       id="clipPath247"><rect
         style="fill:#000000;stroke-width:0.264583"
         id="rect249"
         width="40.575588"
         height="73.834267"
         x="44.566631"
         y="191.23741" /></clipPath><clipPath
       clipPathUnits="userSpaceOnUse"
       id="clipPath247-7"><rect
         style="fill:#000000;stroke-width:0.264583"
         id="rect249-1"
         width="40.575588"
         height="73.834267"
         x="44.566631"
         y="191.23741" /></clipPath><pattern
       id="EMFhbasepattern"
       patternUnits="userSpaceOnUse"
       width="6"
       height="6"
       x="0"
       y="0" /><rect
       x="910.18036"
       y="147.54877"
       width="150.21532"
       height="50.664337"
       id="rect6735-3" /></defs><g
     inkscape:label="Layer 1"
     inkscape:groupmode="layer"
     id="layer1"><g
       id="g4540"
       transform="translate(52.216128,1.3303496)"
       style="fill:none;stroke:#ff0000"
       inkscape:groupmode="layer" /><circle
       style="fill:none;fill-opacity:1;stroke:#000000;stroke-width:0.347051"
       id="path4696-0"
       cx="52.916672"
       cy="52.916668"
       r="52.916668" /><path
       id="path6386-8-14"
       style="fill:none;fill-opacity:1;stroke:#000000;stroke-width:0.170154"
       d="m 55.75622,44.320358 c -0.005,-0.03952 -0.0158,-0.880499 -0.0239,-1.868854 l -0.015,-1.797025 0.16674,-0.05295 c 0.0917,-0.02911 0.21026,-0.02609 0.26341,0.0068 l 0.0967,0.05977 v 1.710565 c 0,0.940813 -0.0262,1.778734 -0.0581,1.86206 l -0.0581,0.151505 h -0.18132 c -0.0997,0 -0.18535,-0.03232 -0.19029,-0.07184 z m -1.08056,0 c -0.005,-0.03952 -0.0158,-0.880499 -0.0239,-1.868854 l -0.015,-1.797025 0.16675,-0.05295 c 0.0917,-0.02911 0.21026,-0.02609 0.2634,0.0068 l 0.0967,0.05977 v 1.710565 c 0,0.940813 -0.0262,1.778734 -0.0581,1.86206 l -0.0581,0.151505 H 54.8661 c -0.0997,0 -0.18535,-0.03232 -0.1903,-0.07184 z m -1.08056,0 c -0.005,-0.03952 -0.0158,-0.880499 -0.0239,-1.868854 l -0.015,-1.797025 0.16676,-0.05295 c 0.0917,-0.02911 0.21024,-0.02609 0.26339,0.0068 l 0.0967,0.05977 v 1.710565 c 0,0.940813 -0.0262,1.778734 -0.0581,1.86206 l -0.0581,0.151505 h -0.18131 c -0.0997,0 -0.18535,-0.03232 -0.1903,-0.07184 z m -1.08056,0 c -0.005,-0.03952 -0.0158,-0.880499 -0.024,-1.868854 l -0.015,-1.797025 0.16676,-0.05295 c 0.0917,-0.02911 0.21025,-0.02609 0.2634,0.0068 l 0.0967,0.05977 v 1.710565 c 0,0.940813 -0.0262,1.778734 -0.0581,1.86206 l -0.0581,0.151505 h -0.18132 c -0.0997,0 -0.18535,-0.03232 -0.19029,-0.07184 z m -1.08056,0 c -0.005,-0.03952 -0.0158,-0.880499 -0.024,-1.868854 l -0.015,-1.797025 0.16676,-0.05295 c 0.0917,-0.02911 0.21025,-0.02609 0.2634,0.0068 l 0.0967,0.05977 v 1.710565 c 0,0.940813 -0.0261,1.778734 -0.0581,1.86206 l -0.0581,0.151505 h -0.18132 c -0.0997,0 -0.18535,-0.03232 -0.19029,-0.07184 z m -1.08056,0 c -0.005,-0.03952 -0.0158,-0.880499 -0.0239,-1.868854 l -0.015,-1.797025 0.16677,-0.05295 c 0.0917,-0.02911 0.21024,-0.02609 0.26339,0.0068 l 0.0967,0.05977 v 1.710565 c 0,0.940813 -0.0262,1.778734 -0.0581,1.86206 l -0.0581,0.151505 h -0.18127 c -0.0997,0 -0.18536,-0.03232 -0.1903,-0.07184 z M 53.23991,5.785853 c -0.26986,0.1214162 -0.50042,0.3079356 -0.75329,0.4597619 -8.6e-4,0.2866759 -0.11005,0.6164554 -0.0464,0.8778221 0.1718,0.1831902 0.45002,0.3267813 0.55268,0.5363711 -0.15286,0.8206233 -0.20103,1.707303 -0.71486,2.4035889 0.22234,0.888316 0.0379,1.809787 0.13095,2.712198 0.006,0.627776 0.0942,1.267312 0.0653,1.887174 -0.21181,0.492984 -0.53544,1.04313 -0.26515,1.593362 0.16422,0.282987 0.20108,0.59064 0.17056,0.91234 -0.035,0.34332 0.072,0.725315 -0.0557,1.043413 -0.12133,0.274333 -0.42971,0.513943 -0.28865,0.836003 0.10298,0.61044 0.20914,1.25018 0.12503,1.860551 -0.10217,0.238579 -0.29952,0.466323 -0.34619,0.711229 0.0802,0.398874 0.27135,0.789269 0.28491,1.192961 -0.0919,0.441637 -0.0358,0.936286 -0.3525,1.297342 -0.26234,0.250163 0.0224,0.559919 0.0763,0.844716 0.1487,0.261717 0.11673,0.525809 -0.003,0.791576 -0.22044,0.420844 0.1324,0.861429 0.10243,1.289379 -0.0898,0.369817 -0.27003,0.746545 -0.30505,1.112478 0.1395,0.311907 0.35786,0.605534 0.28384,0.965645 v 1.748509 c -0.28431,0.168842 -0.72082,0.170146 -0.84042,0.520027 -0.055,0.498797 0.24216,0.988112 0.47097,1.424814 0.20885,0.310544 0.0221,0.707276 0.0473,1.057829 -0.0414,0.27333 0.008,0.592684 -0.0865,0.838972 -0.16154,0.172707 -0.45466,0.306972 -0.53575,0.502798 0.075,0.307098 0.30183,0.611636 0.12049,0.921422 -0.23389,0.685549 -0.42483,1.406288 -0.80623,2.026112 -0.35323,0.484341 -0.86512,0.892647 -1.04623,1.478839 0.14137,0.335211 0.41439,0.637978 0.47302,0.993972 v 3.849429 c -0.25458,0.140155 -0.59628,0.177399 -0.79297,0.386784 -0.17153,0.284213 -0.25003,0.640567 -0.24737,0.962433 0.17009,0.488527 0.54415,0.857331 0.89269,1.222796 -0.16658,0.460833 -0.16699,1.006218 -0.54308,1.361346 -2.42291,2.997014 -4.31097,6.471487 -5.60976,10.047791 -0.6876,1.887398 -1.16923,3.825191 -1.38636,5.833664 -0.30193,0.33709 -0.68376,0.637998 -0.93278,0.99662 0.0484,0.256597 0.35715,0.408803 0.50839,0.624038 0.15143,0.199184 0.0247,0.51041 0.0664,0.753827 -0.005,0.670938 0.0324,1.227605 0.13615,1.872991 -0.69776,0.275822 -1.2758,0.769323 -1.83421,1.252944 -0.20806,0.216638 -0.024,0.420104 0.14175,0.587535 0.23782,0.159477 0.19315,0.406135 0.25484,0.641356 0.24791,0.14763 0.20729,0.411372 0.20673,0.662693 0.0191,1.009255 0.039,2.0185 0.0576,3.027765 -0.15169,0.215226 -0.18677,0.582911 -0.51313,0.571891 -0.27828,0.09092 -0.61969,0.101247 -0.85946,0.24111 -0.17274,0.24731 -0.22355,0.523405 -0.18253,0.820866 0.0189,1.187432 0.0377,2.374884 0.0565,3.562316 -0.51446,0.242073 -1.10231,0.116802 -1.65247,0.161385 -1.77973,0.01966 -3.55962,0.0088 -5.33943,0.01188 -0.24022,0.149403 -0.26986,0.365709 0.0239,0.468601 5.0326,0.0029 10.06522,0.0049 15.09783,0.0068 0.16879,-0.06279 0.46379,-0.207156 0.28823,-0.397871 -0.26166,-0.166224 -0.61939,-0.03728 -0.92182,-0.07817 -2.18781,-0.0019 -4.37562,-0.0019 -6.56344,-0.0029 -0.20315,-0.145158 -0.5237,-0.226401 -0.41897,-0.538084 0.0166,-1.20583 0.034,-2.411641 0.0511,-3.617451 0.69302,-0.169903 1.41675,-0.06337 2.1241,-0.09753 8.01065,-0.0068 16.02147,-0.01519 24.03201,0.02765 0.19024,0.04799 0.64141,-0.100935 0.61681,0.170322 0.009,1.129415 -0.0581,2.27278 0.0293,3.393746 0.30756,0.168598 -0.0711,0.368541 -0.17984,0.554302 -0.16104,0.224668 -0.50481,0.0587 -0.74711,0.109696 -2.39063,0 -4.78127,0 -7.17191,0 -0.31911,0.12639 -0.0876,0.421525 0.15458,0.462662 2.60541,0.03096 5.22425,0.0058 7.83483,0.0148 2.41662,2.82e-4 4.83326,4.57e-4 7.24989,8.56e-4 0.17792,-0.09637 0.41411,-0.218263 0.16258,-0.415451 -1.28543,-0.05724 -2.60797,-0.04303 -3.90779,-0.07262 -0.96433,-0.01382 -1.92869,-0.02735 -2.89303,-0.04157 -0.003,-1.466213 -0.005,-2.932446 -0.008,-4.398669 -0.27767,-0.266351 -0.68287,-0.312657 -1.02916,-0.44737 -0.15611,-1.225396 -0.16199,-2.471273 -0.0457,-3.697681 0.1541,-0.472212 0.22153,-1.035382 0.65,-1.349188 0.1463,-0.163575 -0.15179,-0.342443 -0.24805,-0.477634 -0.45011,-0.419218 -0.93417,-0.841552 -1.5313,-1.029755 -0.14142,-0.865031 -0.11888,-1.743048 -0.0814,-2.615331 0.2483,-0.222322 0.53885,-0.422042 0.687,-0.731194 -0.27212,-0.405444 -0.68128,-0.694165 -1.02828,-1.031809 0.0115,-1.11239 -0.31172,-2.194439 -0.55022,-3.272029 -0.20787,-0.936159 -0.57568,-1.823881 -0.83841,-2.742899 -0.80461,-2.120866 -1.75261,-4.168102 -2.93824,-6.105077 -0.41713,-0.624788 -0.76528,-1.288056 -1.2185,-1.889589 -0.56554,-0.845572 -1.2607,-1.59456 -1.82937,-2.438351 0.0236,-0.297228 -0.0459,-0.633656 0.0324,-0.907813 0.2332,-0.258564 0.55433,-0.480185 0.73328,-0.761653 -0.009,-0.430617 0.0314,-0.940511 -0.20961,-1.300535 -0.27374,-0.117338 -0.54787,-0.23378 -0.82131,-0.351769 -0.0282,-1.277592 -0.0549,-2.555222 -0.0831,-3.832823 0.16463,-0.31769 0.4545,-0.599216 0.53933,-0.940209 0.0877,-0.30486 -0.15353,-0.478559 -0.3427,-0.673022 -0.3103,-0.350183 -0.67734,-0.666626 -0.95258,-1.037465 -0.17656,-0.61371 -0.42905,-1.216732 -0.55729,-1.837422 -0.0108,-0.36714 0.0701,-0.769489 0.004,-1.115583 -0.18996,-0.250727 -0.56697,-0.421292 -0.50351,-0.781267 0.003,-0.438327 -0.0915,-0.898469 -0.0292,-1.323976 0.17964,-0.365251 0.41816,-0.715784 0.56145,-1.090342 -0.0226,-0.249111 0.0969,-0.571414 -0.19688,-0.686601 -0.14724,-0.196244 -0.48485,-0.05588 -0.59577,-0.166544 0.10868,-1.728398 0.15193,-3.459774 0.10342,-5.19119 -0.009,-0.62762 -0.018,-1.255212 -0.0269,-1.882832 -0.21908,-0.147466 -0.28827,-0.357571 -0.24048,-0.614655 -0.0114,-0.548597 0.05,-1.097642 0.19008,-1.628446 -0.13022,-0.40924 -0.40268,-0.796306 -0.29649,-1.24318 0.0126,-0.609242 0.0991,-1.23953 0.0648,-1.835612 -0.19539,-0.204732 -0.25797,-0.456929 -0.24766,-0.734795 -0.036,-0.441403 -0.0712,-0.882884 -0.10777,-1.324238 0.169,-0.253872 0.48561,-0.456044 0.3961,-0.799451 0.0632,-0.44081 -0.50312,-0.699577 -0.40343,-1.153575 2.7e-4,-0.681199 -0.0678,-1.371421 -0.025,-2.047003 0.0523,-0.352742 0.34759,-0.717273 0.13525,-1.057702 -0.11907,-0.255312 -0.23463,-0.511121 -0.10168,-0.786086 0.0415,-0.263051 0.20865,-0.539262 0.005,-0.775417 C 53.78958,9.4917856 53.5621,9.0679533 53.5378,8.5801666 53.5088,8.2691157 53.37827,7.9305851 53.41139,7.6360244 53.58865,7.3504192 53.98977,7.1481497 53.91037,6.7696694 53.98787,6.4679831 53.79496,6.2751461 53.58753,6.0881595 53.47442,5.9964625 53.38168,5.8251672 53.23918,5.7848865 Z m -0.0353,11.75042 c 0.3845,-0.121027 0.34124,0.185721 0.32449,0.465943 0.0275,0.303701 -0.1003,0.617741 -0.40764,0.721596 -0.24108,0.224814 -0.22025,-0.285109 -0.30951,-0.446601 -0.0641,-0.282442 0.0437,-0.728137 0.39266,-0.740938 z m 0.17595,2.059199 c 0.16775,0.155078 0.35088,0.303984 0.28124,0.558595 0.005,0.473672 0.009,0.947354 0.0131,1.421026 -0.30411,0.04293 -0.60819,0.08605 -0.91245,0.128202 0,-0.647489 10e-6,-1.294987 0,-1.942485 0.20095,-0.0551 0.46546,-0.466635 0.61803,-0.165338 z m -0.0602,2.663078 c 0.18922,0.136427 0.54349,0.16561 0.47905,0.467812 0.005,0.411013 0.11487,0.842429 0.0603,1.241263 -0.1351,0.170711 -0.14476,0.551654 -0.43428,0.464328 -0.31635,0.0255 -0.59743,-0.140885 -0.85392,-0.303419 -0.0125,-0.579348 0.002,-1.163106 0.14676,-1.727639 0.19014,-0.02862 0.42516,-0.256976 0.60212,-0.142345 z m -0.24933,2.562279 c 0.4602,0.04877 0.8339,0.326207 1.13348,0.66135 -0.32968,0.262856 -0.73313,0.43418 -1.16105,0.367977 -0.30542,0.01996 -0.69672,-0.244312 -0.5215,-0.580175 0.11067,-0.182704 0.28459,-0.394494 0.4632,-0.46901 l 0.0441,0.01022 z m 0.23607,1.524289 c 0.18278,0.149704 0.61986,0.135618 0.60565,0.411664 v 1.054267 c -0.33521,0.09326 -0.73392,0.416668 -1.05397,0.116286 -0.22013,-0.142258 -0.47829,-0.267207 -0.38367,-0.574101 v -0.853389 c 0.2731,-0.03757 0.56885,-0.210797 0.83199,-0.154727 z m -0.37488,2.109594 c 0.33542,-0.01246 0.76928,0.01012 0.96644,0.299009 -0.0111,0.678083 0.0917,1.372131 -0.0469,2.04047 -0.0822,0.327288 -0.39547,0.241801 -0.65782,0.246668 -0.25156,-0.01246 -0.56576,0.08858 -0.64985,-0.22899 -0.23338,-0.286773 -0.0477,-0.68776 -0.0841,-1.028013 0.0457,-0.327658 -0.0361,-0.703539 0.0894,-1.001117 0.12567,-0.100527 0.19494,-0.369301 0.38284,-0.328027 z m 0.30415,4.118398 c 0.24268,0.02473 0.53187,-0.04867 0.7466,0.03504 0.13292,0.197392 0.40387,0.349374 0.29983,0.620135 -0.0519,0.578053 -0.0912,1.159786 -0.2224,1.726752 -0.54408,-0.03125 -1.11735,0.06376 -1.64099,-0.10699 -0.32819,-0.103816 -0.17737,-0.485684 -0.23221,-0.748414 -0.0226,-0.44845 -0.0465,-0.896813 -0.0692,-1.345264 0.34867,-0.179725 0.73659,-0.177651 1.11845,-0.181253 z m 1.26434,3.435828 c 0.39122,0.50161 0.50777,1.164303 0.58973,1.78069 0.009,0.279015 0.11295,0.603548 -0.22361,0.718306 -0.53636,0.354719 -1.03572,0.855102 -1.69147,0.961586 -0.39933,0.07233 -0.6717,-0.287844 -0.99654,-0.460852 -0.39142,-0.256587 -0.74686,-0.562498 -1.07857,-0.891898 0.13996,-0.666276 0.24493,-1.385691 0.64928,-1.950418 0.13051,-0.268872 0.40633,-0.217514 0.65799,-0.218779 0.67327,-0.01051 1.34653,-0.02122 2.0198,-0.03144 0.0244,0.03095 0.049,0.06181 0.0734,0.09287 z m -3.60294,2.807194 c 0.32433,0.165922 0.64885,0.331503 0.97346,0.496889 -0.12258,0.179686 -0.0635,0.600949 -0.32937,0.586951 -0.34913,-0.06327 -0.12187,-0.144896 -0.36605,0.0111 -0.29603,0.0088 -0.59206,0.01674 -0.88811,0.02443 -0.26163,-0.263567 -0.19519,-0.640236 -0.0622,-0.950216 0.17762,-0.07982 0.46079,-0.241042 0.66524,-0.172755 z m 4.71255,0.109638 c 0.39533,-0.01723 0.78027,0.318313 0.69672,0.733131 0.0905,0.350426 -0.37873,0.129691 -0.57766,0.202951 -0.36872,0.0365 -0.88953,0.140583 -1.11494,-0.231541 -0.10334,-0.395272 0.39014,-0.594446 0.6988,-0.677139 0.0976,-0.02083 0.19731,-0.02998 0.29708,-0.02735 z m -3.43848,6.33143 c 0.13026,0.229058 0.19438,0.679261 -0.17178,0.695459 -0.69819,0.05811 -1.41275,0.118963 -2.10827,0.01373 -0.26507,-0.02726 -0.44269,-0.231025 -0.61732,-0.409435 0.16476,-0.215908 0.3858,-0.369408 0.6679,-0.351682 0.72027,-0.06872 1.44494,-0.07554 2.16758,-0.108071 0.0206,0.05335 0.0413,0.106689 0.0619,0.160033 z m 2.00969,-0.09199 c 0.85175,0.0292 1.71636,-0.0401 2.55875,0.104333 0.30699,0.07252 0.28555,0.465086 0.0443,0.605582 -0.19149,0.188748 -0.52005,0.05782 -0.76852,0.113862 -0.95634,0.04565 -1.91397,0.01869 -2.8699,-0.02268 -0.0164,-0.280845 -0.0407,-0.698068 0.32624,-0.752414 0.23281,-0.04935 0.47252,-0.04342 0.7091,-0.04867 z m -1.94868,1.346569 c 0.25285,0.17184 0.33255,0.39278 0.19905,0.67819 -0.0794,0.207916 -0.004,0.600784 -0.33889,0.50491 -0.65304,8.47e-4 -1.32079,0.121835 -1.96357,-0.03631 -0.009,-0.348119 -0.27902,-0.854635 0.1176,-1.079556 0.58401,-0.157005 1.20713,-0.08148 1.80632,-0.13705 0.0872,-0.01781 0.12602,-8.47e-4 0.17949,0.06989 z m 1.17593,-0.05033 h 2.82929 c 0.0956,0.280349 0.3009,0.560873 0.10175,0.843869 -0.0732,0.248897 -0.13291,0.518421 -0.45238,0.422704 -0.9118,0.02083 -1.82701,0.0328 -2.7333,-0.08625 -0.0399,-0.260879 -0.18758,-0.54409 -0.16316,-0.791663 0.1425,-0.116559 0.20662,-0.418985 0.4178,-0.388682 z m -0.084,1.713505 c 0.99317,0.02609 1.99965,-0.0039 2.9846,0.05588 0.3449,0.144778 0.67194,0.362652 0.81628,0.723289 0.69824,0.983751 1.49209,1.900452 2.1099,2.940984 0.77962,1.198947 1.37083,2.504418 2.05787,3.754539 0.23684,0.572154 0.43439,1.159903 0.70913,1.716239 0.78223,1.999733 1.43123,4.066505 1.73708,6.196064 0.0774,0.268113 -0.16984,0.476379 -0.25501,0.71522 H 52.20544 c -0.29322,-0.408705 -0.10876,-0.943947 -0.14925,-1.410105 0.11152,-3.913938 0.33931,-7.823156 0.63989,-11.726679 0.0557,-0.842039 0.0977,-1.677594 0.14508,-2.522485 0.16195,-0.125972 0.26076,-0.460658 0.48362,-0.442961 z m -3.26252,0.01061 h 2.10428 c 0.14364,0.215168 0.30407,0.424446 0.19036,0.692481 -0.27605,1.858175 -0.36346,3.766171 -0.49915,5.655925 -0.18709,3.114391 -0.38042,6.245203 -0.34017,9.372764 -0.18739,0.156372 -0.31981,0.44956 -0.60529,0.370459 -2.65791,-0.0145 -5.31803,0.03719 -7.9744,-0.055 -0.36082,0.0029 -0.30251,-0.472981 -0.24549,-0.723669 0.23985,-1.184083 0.47293,-2.374377 0.81706,-3.533395 0.3746,-1.100845 0.72954,-2.237347 1.22423,-3.304034 0.65772,-1.485439 1.32553,-2.979785 2.2075,-4.346503 0.28916,-0.563219 0.6999,-1.056856 1.07557,-1.559576 0.48457,-0.966015 1.26189,-1.736652 1.93409,-2.569433 z m 1.55346,16.647761 c 4.12996,0.03952 8.2609,0.0068 12.39126,0.01772 0.13542,0.103359 0.019,0.458603 0.0585,0.657816 -1.18475,0.03125 -2.42782,0.0039 -3.63477,0.01324 h -7.64617 c -0.0992,-0.343486 -0.34507,0.137809 -0.58602,-0.0029 -0.48414,-0.01674 -0.98788,0.03329 -1.45999,-0.02443 -0.23148,-0.273807 -0.30629,0.155292 -0.61069,0.02716 h -7.901 c 0.0326,-0.206183 -0.0616,-0.539106 0.0453,-0.671075 3.11446,-0.0088 6.22963,0.01947 9.34358,-0.01772 z m 12.20046,1.069832 c 0.17168,0.209502 0.40309,0.396119 0.34272,0.697279 0.0304,0.580448 0.0628,1.16078 0.0932,1.741228 -0.21515,0.16487 -0.35472,0.516007 -0.67161,0.436759 H 52.16038 c -0.25885,-0.583504 -0.11575,-1.24245 -0.13493,-1.861388 0.009,-0.321164 0.0166,-0.642329 0.0253,-0.963484 3.92181,-0.01645 7.84362,-0.03456 11.76545,-0.05033 z m -21.14636,0.0019 h 8.4605 c 0.36422,0.576768 0.26868,1.293536 0.3367,1.942796 -0.0175,0.265426 0.13993,0.599732 -0.14838,0.760066 -0.18661,0.298795 -0.5679,0.125222 -0.85904,0.170642 h -7.89234 c -0.17153,-0.21359 -0.4013,-0.408598 -0.31312,-0.7108 0.0404,-0.6434 -0.0312,-1.314387 0.14338,-1.938124 0.0805,-0.10368 0.10312,-0.277457 0.2723,-0.22458 z m 10.84683,3.25104 c 3.78447,0.0185 7.5692,0.0049 11.35344,0.05393 0.0924,0.241839 0.0707,0.492391 -0.23871,0.506613 -1.43722,0.05198 -2.87897,0.01217 -4.31787,0.02959 -6.1061,0.01275 -12.21219,0.02599 -18.3183,0.03845 -0.29974,-0.192156 -0.60192,-0.380573 -0.90271,-0.571162 1.71216,-0.118846 3.43088,-0.04419 5.14596,-0.06649 2.42606,0.0039 4.85213,0.0058 7.27819,0.0088 z m 11.16954,2.101632 c 0.18206,0.136962 0.56488,0.144301 0.61095,0.369047 -8.5e-4,1.112157 -0.003,2.224313 -0.004,3.33645 -0.20558,0.220687 -0.49736,0.5639 -0.82662,0.347866 -0.23212,-0.104887 -0.43643,-0.241723 -0.34892,-0.528048 0.008,-1.066347 0.0144,-2.132713 0.0217,-3.19906 0.17462,-0.105296 0.32734,-0.512629 0.5473,-0.326255 z m -17.65394,0.0058 c 0.18894,0.117221 0.6233,0.0513 0.55879,0.352782 v 3.400463 c -0.20134,0.269407 -0.59646,0.523473 -0.89742,0.243144 -0.20487,-0.132981 -0.30679,-0.322917 -0.25199,-0.568514 v -3.080308 c 0.19381,-0.100225 0.36083,-0.447263 0.59062,-0.347477 z m -1.52958,0.04419 c 0.17055,0.160149 0.4506,0.270011 0.36427,0.551352 -0.0187,1.034895 0.0456,2.077481 -0.0672,3.107285 -0.0326,0.311381 -0.23537,0.376008 -0.51812,0.32536 -0.37236,-0.0019 -0.73679,-0.317115 -0.64793,-0.708202 -0.003,-1.052455 -0.0265,-2.110022 0.12451,-3.154671 0.22343,-0.04585 0.46856,-0.198629 0.67859,-0.175441 l 0.035,0.02872 z m 10.34108,-0.04332 c 0.18775,0.114953 0.61304,0.04994 0.55878,0.346591 0.0165,1.159018 0.0681,2.326027 -0.0487,3.480031 -0.15874,0.438921 -0.8084,0.335309 -1.03092,-0.0039 -0.15774,-0.197559 -0.0273,-0.513428 -0.0699,-0.758246 v -2.718139 c 0.19284,-0.09791 0.36332,-0.445725 0.59062,-0.346591 z m -1.57734,0.05743 c 0.16509,0.160402 0.502,0.234568 0.41584,0.520222 -0.018,1.103317 -0.0363,2.206625 -0.0542,3.309943 -0.34647,0.158553 -0.74598,0.258067 -1.099,0.0548 v -3.643597 c 0.21609,-0.08537 0.4411,-0.299223 0.65202,-0.303234 0.0285,0.02064 0.0569,0.04127 0.0854,0.06181 z m -12.65049,-0.06717 c 0.1981,0.07972 0.60256,-0.02356 0.6576,0.18248 0.0181,1.176695 0.0372,2.35339 0.055,3.530085 -0.19262,0.372727 -0.77262,0.601786 -1.07248,0.228114 -0.12906,-1.086497 -0.0825,-2.189016 -0.1259,-3.282035 -0.0795,-0.266691 0.0964,-0.431688 0.28239,-0.591438 0.0592,-0.08303 0.10604,-0.09579 0.20336,-0.06726 z m 21.45226,0.03183 c 0.16251,0.148809 0.57049,0.154396 0.52343,0.427035 -0.0199,1.154131 -0.0395,2.308272 -0.061,3.462364 -0.271,0.0731 -0.54204,0.145937 -0.81343,0.217504 -0.15642,-0.190326 -0.45612,-0.322878 -0.37665,-0.611481 v -3.34158 c 0.23803,-0.0294 0.49226,-0.240448 0.71891,-0.158573 z m -5.29963,-0.0019 c 0.21351,0.101237 0.55946,0.109989 0.45357,0.430053 v 3.482329 c -0.27953,0.108372 -0.65929,0.322245 -0.88858,0.0088 -0.17377,-0.141975 -0.32592,-0.297121 -0.26081,-0.53935 v -3.10268 c 0.22675,-0.07768 0.4431,-0.333099 0.67767,-0.285547 z m 1.72323,0 c 0.22783,0.08196 0.50158,0.125719 0.44634,0.43163 0.14587,1.001195 0.0919,2.017108 0.10449,3.025419 -0.14167,0.161405 -0.16476,0.519355 -0.38408,0.549941 -0.24952,-0.01937 -0.61379,0.0623 -0.77302,-0.142501 -0.0387,-1.1985 -0.0475,-2.39772 -0.0701,-3.59659 0.20689,-0.08255 0.40634,-0.269242 0.61603,-0.29131 l 0.0422,0.01645 z m -10.69564,-0.01596 c 0.29284,-0.08917 0.41494,0.109404 0.50847,0.352052 0.21294,0.328183 0.06,0.748073 0.10603,1.118133 -0.016,0.747548 0.0359,1.505696 -0.0743,2.245923 -0.0205,0.358837 -0.31164,0.325983 -0.59345,0.306807 -0.30207,0.06911 -0.48306,-0.04935 -0.5206,-0.358963 -0.10504,-1.085699 -0.0259,-2.181745 -0.0336,-3.271376 0.14439,-0.210524 0.33359,-0.395886 0.60741,-0.392576 z m 3.4376,0.02132 c 0.21392,0.09807 0.65395,0.0088 0.72058,0.228465 v 3.56545 c -0.33029,0.204392 -0.77669,0.362798 -1.14498,0.172405 -0.14946,-0.705174 -0.075,-1.439328 -0.0999,-2.156631 V 71.6109 c 0.16965,-0.08965 0.32066,-0.381615 0.5243,-0.320951 z m -1.67371,0.0097 c 0.19593,0.01596 0.46956,0.06493 0.5811,0.189381 -0.0187,1.24248 -0.0375,2.484959 -0.0577,3.727419 -0.36788,0.03874 -0.84869,0.181984 -1.09812,-0.193625 v -3.564029 c 0.18833,-0.06327 0.36977,-0.170837 0.57469,-0.159146 z m -7.36678,0.01587 h 0.80282 c 0.0186,1.267886 0.0384,2.535753 0.0574,3.803639 -0.24171,0.189868 -0.59248,0.382812 -0.8606,0.125933 -0.19495,-0.142413 -0.48492,-0.239445 -0.39043,-0.533178 0.0286,-1.006968 -0.0395,-2.02621 0.10576,-3.024475 0.0821,-0.159672 0.01,-0.464551 0.28498,-0.371919 z m 18.57699,0.279384 c -0.0181,1.239307 -0.036,2.478603 -0.0557,3.71788 -0.37003,0.05081 -0.94876,0.126099 -1.10167,-0.318293 -0.006,-1.187422 -0.0101,-2.374835 -0.0132,-3.562257 0.39135,-0.03465 0.78278,-0.06843 1.17416,-0.10257 -0.002,0.08839 -0.003,0.176833 -0.003,0.26524 z" /><text
       xml:space="preserve"
       transform="matrix(0.26458333,0,0,0.26458333,-207.57734,43.469166)"
       id="text6733-5"
       style="font-style:normal;font-variant:normal;font-weight:normal;font-stretch:normal;font-size:42.6667px;font-family:Cambria;-inkscape-font-specification:Cambria;white-space:pre;shape-inside:url(#rect6735-3);display:inline;fill:#f2f2f2;fill-opacity:1;stroke:#f2f2f2;stroke-width:0.755906;stroke-dasharray:none;stroke-dashoffset:0;stroke-opacity:1"><tspan
         x="910.17969"
         y="186.06969"
         id="tspan9783">TORINO</tspan></text></g></svg>
