<?xml version="1.0" encoding="UTF-8" standalone="no"?>
<!-- Generator: Adobe Illustrator 19.2.0, SVG Export Plug-In . SVG Version: 6.00 Build 0)  -->

<svg
   version="1.1"
   id="Layer_1"
   x="0px"
   y="0px"
   viewBox="0 0 960 960"
   style="enable-background:new 0 0 960 960;"
   xml:space="preserve"
   sodipodi:docname="gift-large.svg"
   inkscape:version="1.2.2 (732a01da63, 2022-12-09)"
   xmlns:inkscape="http://www.inkscape.org/namespaces/inkscape"
   xmlns:sodipodi="http://sodipodi.sourceforge.net/DTD/sodipodi-0.dtd"
   xmlns="http://www.w3.org/2000/svg"
   xmlns:svg="http://www.w3.org/2000/svg"><defs
   id="defs23">
	
	
	
	
	
	
	
</defs><sodipodi:namedview
   id="namedview21"
   pagecolor="#ffffff"
   bordercolor="#000000"
   borderopacity="0.25"
   inkscape:showpageshadow="2"
   inkscape:pageopacity="0.0"
   inkscape:pagecheckerboard="0"
   inkscape:deskcolor="#d1d1d1"
   showgrid="false"
   inkscape:zoom="0.9"
   inkscape:cx="443.88889"
   inkscape:cy="480.55556"
   inkscape:window-width="1822"
   inkscape:window-height="1051"
   inkscape:window-x="89"
   inkscape:window-y="-9"
   inkscape:window-maximized="1"
   inkscape:current-layer="Layer_1" />
<style
   type="text/css"
   id="style2">
	.st0{fill:#E8815D;}
	.st1{fill:#F69B76;}
	.st2{fill:#D83945;}
	.st3{fill:#EA3D53;}
</style>
<path
   class="st0"
   d="M 725.8,788.9 H 234.2 c -8.9,0 -16.1,-7.2 -16.1,-16.1 V 397.9 c 0,-8.9 7.2,-16.1 16.1,-16.1 h 491.6 c 8.9,0 16.1,7.2 16.1,16.1 v 374.9 c 0,8.9 -7.2,16.1 -16.1,16.1 z"
   id="path4"
   style="fill:#000055" /><path
   class="st1"
   d="M 754.1,439 H 205.9 c -8.9,0 -16.1,-7.2 -16.1,-16.1 V 296 c 0,-8.9 7.2,-16.1 16.1,-16.1 h 548.2 c 8.9,0 16.1,7.2 16.1,16.1 v 126.9 c 0,8.9 -7.2,16.1 -16.1,16.1 z"
   id="path6"
   style="fill:#000080" /><path
   class="st2"
   d="m 495.7,291.5 h -20 c -16.5,0 -30,-13.4 -30,-30 v -6.2 c 0,-16.5 13.4,-30 30,-30 h 20 c 16.5,0 30,13.4 30,30 v 6.2 c 0,16.6 -13.4,30 -30,30 z"
   id="path8"
   style="fill:#ffcc00" /><rect
   x="409.70001"
   y="439"
   class="st2"
   width="140.3"
   height="349.89999"
   id="rect10"
   style="fill:#d4aa00" /><rect
   x="397.20001"
   y="279.89999"
   class="st3"
   width="165.3"
   height="159.10001"
   id="rect12"
   style="fill:#ffcc00" /><path
   class="st2"
   d="M 467.5,239.5 378.2,181.8 C 334.1,153.3 275.9,185 275.9,237.5 v 0 c 0,23.4 19,42.4 42.4,42.4 H 458 c 9.7,0 17.6,-7.9 17.6,-17.6 v -8.1 c -0.1,-5.9 -3.1,-11.5 -8.1,-14.7 z m -51.2,21 H 339 c -9.4,0 -17,-7.6 -17,-17 v 0 c 0,-30.8 34.1,-49.3 59.9,-32.6 l 41.9,27.1 c 4.6,2.9 6.8,8.6 5,14.1 -1.7,5.2 -7,8.4 -12.5,8.4 z"
   id="path14"
   style="fill:#ffcc00" /><path
   class="st2"
   d="m 493,254.3 v 8.1 c 0,9.7 7.9,17.6 17.6,17.6 h 139.7 c 23.4,0 42.4,-19 42.4,-42.4 v 0 c 0,-52.5 -58.2,-84.2 -102.3,-55.7 L 501,239.5 c -5,3.2 -8,8.8 -8,14.8 z m 46.7,-2.2 c -1.7,-5.5 0.5,-11.2 5,-14.1 l 41.9,-27.1 c 25.8,-16.7 59.9,1.9 59.9,32.6 v 0 c 0,9.4 -7.6,17 -17,17 h -77.3 c -5.5,0 -10.9,-3.2 -12.5,-8.4 z"
   id="path16"
   style="fill:#ffcc00" />
</svg>
